<svg width="19" height="19" viewBox="0 0 19 19" fill="none" xmlns="http://www.w3.org/2000/svg">
<path fill-rule="evenodd" clip-rule="evenodd" d="M6.19281 1.6001C7.03461 1.56135 7.30301 1.55273 9.44734 1.55273C11.5917 1.55273 11.8601 1.56206 12.7012 1.6001C13.5422 1.63813 14.1164 1.77233 14.6187 1.96682C15.1447 2.16561 15.622 2.47635 16.0167 2.87823C16.4186 3.27222 16.7286 3.74873 16.9267 4.27549C17.1219 4.77784 17.2553 5.35196 17.2941 6.19161C17.3328 7.03484 17.3415 7.30324 17.3415 9.44685C17.3415 11.5912 17.3321 11.8596 17.2941 12.7014C17.2561 13.541 17.1219 14.1151 16.9267 14.6175C16.7286 15.1443 16.418 15.6216 16.0167 16.0162C15.622 16.4181 15.1447 16.7281 14.6187 16.9262C14.1164 17.1214 13.5422 17.2549 12.7026 17.2936C11.8601 17.3324 11.5917 17.341 9.44734 17.341C7.30301 17.341 7.03461 17.3316 6.19281 17.2936C5.35316 17.2556 4.77905 17.1214 4.27669 16.9262C3.74988 16.7281 3.27258 16.4175 2.878 16.0162C2.47639 15.622 2.1656 15.1449 1.96731 14.6182C1.77282 14.1159 1.63934 13.5417 1.60059 12.7021C1.56183 11.8589 1.55322 11.5905 1.55322 9.44685C1.55322 7.30252 1.56255 7.03412 1.60059 6.19304C1.63862 5.35196 1.77282 4.77784 1.96731 4.27549C2.16589 3.74879 2.47692 3.27172 2.87872 2.87751C3.27273 2.47599 3.74956 2.16521 4.27598 1.96682C4.77833 1.77233 5.35245 1.63885 6.19209 1.6001H6.19281ZM12.6373 3.02104C11.8048 2.98301 11.5551 2.97511 9.44734 2.97511C7.33961 2.97511 7.08987 2.98301 6.2574 3.02104C5.48736 3.05621 5.06969 3.18466 4.79125 3.29303C4.42309 3.43656 4.15972 3.60664 3.88342 3.88293C3.62151 4.13774 3.41995 4.44793 3.29352 4.79076C3.18515 5.06921 3.05669 5.48688 3.02153 6.25691C2.98349 7.08938 2.9756 7.33912 2.9756 9.44685C2.9756 11.5546 2.98349 11.8043 3.02153 12.6368C3.05669 13.4068 3.18515 13.8245 3.29352 14.1029C3.41982 14.4453 3.62148 14.756 3.88342 15.0108C4.13819 15.2727 4.44893 15.4744 4.79125 15.6007C5.06969 15.709 5.48736 15.8375 6.2574 15.8727C7.08987 15.9107 7.33889 15.9186 9.44734 15.9186C11.5558 15.9186 11.8048 15.9107 12.6373 15.8727C13.4073 15.8375 13.825 15.709 14.1034 15.6007C14.4716 15.4571 14.735 15.2871 15.0113 15.0108C15.2732 14.756 15.4749 14.4453 15.6012 14.1029C15.7095 13.8245 15.838 13.4068 15.8732 12.6368C15.9112 11.8043 15.9191 11.5546 15.9191 9.44685C15.9191 7.33912 15.9112 7.08938 15.8732 6.25691C15.838 5.48688 15.7095 5.06921 15.6012 4.79076C15.4576 4.42261 15.2876 4.15923 15.0113 3.88293C14.7564 3.62104 14.4463 3.41949 14.1034 3.29303C13.825 3.18466 13.4073 3.05621 12.6373 3.02104ZM8.43905 11.8804C9.00215 12.1148 9.62918 12.1464 10.213 11.9699C10.7969 11.7934 11.3013 11.4196 11.6402 10.9125C11.9791 10.4053 12.1314 9.79625 12.0711 9.18929C12.0108 8.58233 11.7417 8.01513 11.3096 7.58456C11.0342 7.30932 10.7012 7.09858 10.3346 6.96749C9.96796 6.8364 9.57683 6.78823 9.18934 6.82645C8.80186 6.86467 8.42767 6.98832 8.09372 7.18851C7.75976 7.3887 7.47434 7.66045 7.25802 7.98418C7.04169 8.30792 6.89983 8.67559 6.84265 9.06073C6.78547 9.44587 6.8144 9.8389 6.92735 10.2115C7.0403 10.5841 7.23446 10.9271 7.49586 11.2157C7.75725 11.5042 8.07938 11.7313 8.43905 11.8804ZM6.57819 6.5777C6.95497 6.20092 7.40228 5.90204 7.89457 5.69812C8.38686 5.49421 8.91449 5.38926 9.44734 5.38926C9.98019 5.38926 10.5078 5.49421 11.0001 5.69812C11.4924 5.90204 11.9397 6.20092 12.3165 6.5777C12.6933 6.95448 12.9922 7.40179 13.1961 7.89408C13.4 8.38637 13.5049 8.914 13.5049 9.44685C13.5049 9.9797 13.4 10.5073 13.1961 10.9996C12.9922 11.4919 12.6933 11.9392 12.3165 12.316C11.5555 13.077 10.5235 13.5044 9.44734 13.5044C8.3712 13.5044 7.33913 13.077 6.57819 12.316C5.81724 11.5551 5.38975 10.523 5.38975 9.44685C5.38975 8.37071 5.81724 7.33865 6.57819 6.5777ZM14.4048 5.99353C14.4982 5.90546 14.573 5.79954 14.6247 5.68206C14.6764 5.56457 14.704 5.43791 14.7058 5.30957C14.7077 5.18122 14.6838 5.05381 14.6356 4.93487C14.5873 4.81593 14.5157 4.70788 14.4249 4.61712C14.3342 4.52635 14.2261 4.45473 14.1072 4.40647C13.9882 4.35822 13.8608 4.33432 13.7325 4.33619C13.6041 4.33806 13.4775 4.36566 13.36 4.41736C13.2425 4.46906 13.1366 4.54381 13.0485 4.63718C12.8772 4.81877 12.7834 5.05996 12.7871 5.30957C12.7907 5.55917 12.8915 5.79753 13.068 5.97405C13.2445 6.15056 13.4829 6.25133 13.7325 6.25497C13.9821 6.25861 14.2233 6.16483 14.4048 5.99353Z" fill="white"/>
</svg>
