<svg width="222" height="64" viewBox="0 0 222 64" fill="none" xmlns="http://www.w3.org/2000/svg">
<circle cx="25.9204" cy="25.9204" r="25.9204" fill="url(#paint0_linear_7_40852)"/>
<circle cx="44.6078" cy="37.9765" r="25.9204" fill="url(#paint1_linear_7_40852)"/>
<path d="M100.981 21.5224C103.143 21.5224 105.041 21.9451 106.672 22.7905C108.324 23.6359 109.592 24.845 110.477 26.4178C111.381 27.971 111.833 29.7798 111.833 31.8441C111.833 33.9085 111.381 35.7173 110.477 37.2704C109.592 38.804 108.324 39.9934 106.672 40.8388C105.041 41.6842 103.143 42.1069 100.981 42.1069H93.7849V21.5224H100.981ZM100.833 38.5975C102.996 38.5975 104.667 38.0077 105.847 36.8281C107.026 35.6485 107.616 33.9871 107.616 31.8441C107.616 29.7011 107.026 28.03 105.847 26.8307C104.667 25.6118 102.996 25.0023 100.833 25.0023H97.9136V38.5975H100.833ZM121.176 42.3724C119.839 42.3724 118.64 42.1364 117.578 41.6646C116.516 41.1731 115.671 40.5144 115.042 39.6887C114.432 38.8629 114.098 37.9487 114.039 36.946H118.197C118.276 37.5752 118.581 38.0962 119.111 38.5091C119.662 38.9219 120.34 39.1284 121.146 39.1284C121.933 39.1284 122.542 38.9711 122.975 38.6565C123.427 38.3419 123.653 37.9389 123.653 37.4474C123.653 36.9166 123.378 36.5233 122.827 36.2678C122.296 35.9925 121.441 35.6976 120.262 35.383C119.043 35.0881 118.04 34.7834 117.254 34.4688C116.487 34.1543 115.818 33.6726 115.248 33.0238C114.698 32.375 114.422 31.5001 114.422 30.3991C114.422 29.4947 114.678 28.669 115.189 27.9219C115.72 27.1748 116.467 26.585 117.43 26.1524C118.414 25.7199 119.564 25.5036 120.881 25.5036C122.827 25.5036 124.38 25.9951 125.54 26.9782C126.7 27.9415 127.339 29.249 127.457 30.9004H123.506C123.447 30.2516 123.171 29.7405 122.68 29.3669C122.208 28.9737 121.569 28.7771 120.763 28.7771C120.016 28.7771 119.436 28.9147 119.023 29.19C118.63 29.4652 118.433 29.8486 118.433 30.3401C118.433 30.8906 118.708 31.3133 119.259 31.6082C119.809 31.8835 120.665 32.1685 121.825 32.4634C123.004 32.7584 123.977 33.0631 124.744 33.3777C125.511 33.6922 126.17 34.1837 126.72 34.8522C127.29 35.501 127.585 36.3661 127.605 37.4474C127.605 38.3911 127.339 39.2365 126.809 39.9836C126.297 40.7307 125.55 41.3205 124.567 41.753C123.604 42.1659 122.473 42.3724 121.176 42.3724ZM133.088 23.8227C132.36 23.8227 131.751 23.5966 131.259 23.1444C130.787 22.6725 130.552 22.0925 130.552 21.4044C130.552 20.7163 130.787 20.1461 131.259 19.6939C131.751 19.2221 132.36 18.9862 133.088 18.9862C133.815 18.9862 134.415 19.2221 134.887 19.6939C135.378 20.1461 135.624 20.7163 135.624 21.4044C135.624 22.0925 135.378 22.6725 134.887 23.1444C134.415 23.5966 133.815 23.8227 133.088 23.8227ZM135.123 25.769V42.1069H130.994V25.769H135.123ZM145.601 25.5036C146.82 25.5036 147.892 25.7494 148.816 26.2409C149.74 26.7127 150.467 27.3321 150.998 28.0988V25.769H155.156V42.2249C155.156 43.7388 154.852 45.0855 154.242 46.2651C153.633 47.4644 152.718 48.4081 151.499 49.0962C150.281 49.804 148.806 50.1579 147.076 50.1579C144.756 50.1579 142.849 49.6173 141.355 48.5359C139.88 47.4546 139.045 45.9801 138.848 44.1123H142.947C143.163 44.8594 143.625 45.4492 144.333 45.8818C145.061 46.3339 145.936 46.56 146.958 46.56C148.157 46.56 149.13 46.1963 149.877 45.4689C150.625 44.7611 150.998 43.6798 150.998 42.2249V39.6887C150.467 40.4555 149.73 41.0944 148.786 41.6056C147.862 42.1168 146.801 42.3724 145.601 42.3724C144.225 42.3724 142.967 42.0185 141.826 41.3107C140.686 40.6029 139.782 39.61 139.113 38.3321C138.465 37.0345 138.14 35.5502 138.14 33.879C138.14 32.2275 138.465 30.7628 139.113 29.4849C139.782 28.2069 140.676 27.2239 141.797 26.5358C142.937 25.8477 144.205 25.5036 145.601 25.5036ZM150.998 33.938C150.998 32.9353 150.802 32.0801 150.408 31.3723C150.015 30.6449 149.484 30.0944 148.816 29.7208C148.147 29.3276 147.43 29.131 146.663 29.131C145.896 29.131 145.188 29.3178 144.54 29.6913C143.891 30.0649 143.36 30.6154 142.947 31.3428C142.554 32.0506 142.357 32.896 142.357 33.879C142.357 34.862 142.554 35.7271 142.947 36.4742C143.36 37.2016 143.891 37.762 144.54 38.1552C145.208 38.5484 145.916 38.745 146.663 38.745C147.43 38.745 148.147 38.5582 148.816 38.1847C149.484 37.7915 150.015 37.241 150.408 36.5332C150.802 35.8057 150.998 34.9407 150.998 33.938ZM168.242 25.5331C170.189 25.5331 171.762 26.1524 172.961 27.391C174.16 28.61 174.76 30.3205 174.76 32.5224V42.1069H170.631V33.0828C170.631 31.7852 170.307 30.7923 169.658 30.1042C169.009 29.3964 168.124 29.0425 167.004 29.0425C165.863 29.0425 164.959 29.3964 164.291 30.1042C163.642 30.7923 163.317 31.7852 163.317 33.0828V42.1069H159.189V25.769H163.317V27.8039C163.868 27.0961 164.566 26.5456 165.411 26.1524C166.276 25.7396 167.22 25.5331 168.242 25.5331Z" fill="white"/>
<defs>
<linearGradient id="paint0_linear_7_40852" x1="51.8407" y1="-15.6728" x2="-28.3315" y2="25.9203" gradientUnits="userSpaceOnUse">
<stop stop-color="#0075FF"/>
<stop offset="0.875" stop-color="#0075FF" stop-opacity="0"/>
</linearGradient>
<linearGradient id="paint1_linear_7_40852" x1="70.5282" y1="-3.61662" x2="-9.64405" y2="37.9765" gradientUnits="userSpaceOnUse">
<stop stop-color="#0075FF"/>
<stop offset="0.786458" stop-color="#0075FF" stop-opacity="0"/>
</linearGradient>
</defs>
</svg>
