<svg width="17" height="15" viewBox="0 0 17 15" fill="none" xmlns="http://www.w3.org/2000/svg">
<path d="M16.3672 2.37794C15.7679 2.64347 15.1242 2.82288 14.4475 2.90398C15.1457 2.48616 15.6681 1.82856 15.9172 1.05388C15.2612 1.44356 14.5431 1.71785 13.7944 1.86482C13.2909 1.32721 12.624 0.97087 11.8972 0.851129C11.1704 0.731388 10.4244 0.854945 9.77502 1.20262C9.12565 1.55029 8.60923 2.10263 8.30594 2.77387C8.00265 3.44512 7.92945 4.19772 8.09771 4.91482C6.7684 4.84808 5.46799 4.50257 4.28085 3.90072C3.09372 3.29887 2.0464 2.45413 1.20687 1.42132C0.919807 1.9165 0.754748 2.49061 0.754748 3.10205C0.754428 3.65248 0.889976 4.19448 1.14937 4.67996C1.40876 5.16544 1.78397 5.57939 2.24171 5.88508C1.71085 5.86819 1.1917 5.72475 0.727477 5.46669V5.50975C0.727424 6.28176 0.994466 7.03 1.48329 7.62753C1.97212 8.22505 2.65262 8.63506 3.40932 8.78797C2.91686 8.92124 2.40055 8.94087 1.89939 8.84538C2.11289 9.50964 2.52877 10.0905 3.0888 10.5067C3.64883 10.9228 4.32498 11.1535 5.02259 11.1662C3.83836 12.0959 2.37583 12.6002 0.870289 12.598C0.603598 12.598 0.337132 12.5825 0.0722656 12.5513C1.60048 13.5339 3.37943 14.0554 5.19627 14.0533C11.3465 14.0533 14.7087 8.95948 14.7087 4.54165C14.7087 4.39812 14.7051 4.25315 14.6986 4.10962C15.3526 3.63668 15.9171 3.05102 16.3657 2.38009L16.3672 2.37794V2.37794Z" fill="white"/>
</svg>
