<svg width="1141" height="609" viewBox="0 0 1141 609" fill="none" xmlns="http://www.w3.org/2000/svg">
<circle cx="65" cy="544" r="65" fill="#816EF4"/>
<circle cx="1110.5" cy="277.5" r="14.5" fill="#48E587"/>
<path d="M533.135 9.26463C534.018 8.1406 535.433 7.57275 536.848 7.77499L552.074 9.95171C553.489 10.1539 554.688 11.0955 555.22 12.4218L560.948 26.6966C561.48 28.0229 561.265 29.5323 560.382 30.6564L550.884 42.7544C550.001 43.8785 548.586 44.4463 547.172 44.2441L531.945 42.0674C530.531 41.8651 529.331 40.9235 528.799 39.5973L523.071 25.3225C522.539 23.9962 522.754 22.4867 523.637 21.3627L533.135 9.26463Z" fill="#806DF5"/>
<path d="M56 53.8025C77.3333 47.8025 121.6 53.4025 128 123.802C104 125.802 56 114.603 56 53.8025Z" fill="#FFA318"/>
<path d="M1059.78 112.341C1057.31 90.3172 1070.01 47.5426 1140.52 52.6326C1138.6 76.6396 1119.78 122.191 1059.78 112.341Z" fill="#2FB8E3"/>
</svg>
