<svg width="54" height="54" viewBox="0 0 54 54" fill="none" xmlns="http://www.w3.org/2000/svg">
<rect width="54" height="54" rx="10" fill="#806DF2" fill-opacity="0.15"/>
<path d="M12.5 23.5L39.5 16V34L12.5 28V23.5Z" stroke="#BC7AF2" stroke-width="2" stroke-linecap="round" stroke-linejoin="round"/>
<path d="M25.3996 32.2C25.242 32.7713 24.9734 33.3059 24.6092 33.7733C24.245 34.2408 23.7923 34.6319 23.277 34.9244C22.7616 35.2169 22.1937 35.4051 21.6056 35.4781C21.0175 35.5511 20.4208 35.5076 19.8496 35.35C19.2783 35.1924 18.7437 34.9239 18.2763 34.5597C17.8088 34.1955 17.4177 33.7428 17.1251 33.2274C16.8326 32.712 16.6445 32.1441 16.5715 31.556C16.4985 30.9679 16.542 30.3713 16.6996 29.8" stroke="#BC7AF2" stroke-width="2" stroke-linecap="round" stroke-linejoin="round"/>
</svg>
