<svg width="25" height="25" viewBox="0 0 25 25" fill="none" xmlns="http://www.w3.org/2000/svg">
<path d="M2.70833 13.6282L6.30416 15.2021L16.6667 9.54899L10.4167 16.8407L19.375 20.9198C19.5282 20.9869 19.6953 21.0161 19.8622 21.005C20.0291 20.9939 20.1908 20.9427 20.3338 20.8559C20.4767 20.769 20.5966 20.6491 20.6834 20.5061C20.7702 20.3631 20.8212 20.2013 20.8323 20.0344L21.874 4.40941C21.8856 4.22856 21.8499 4.0478 21.7704 3.88493C21.691 3.72206 21.5705 3.58268 21.4208 3.48051C21.2711 3.37834 21.0974 3.31691 20.9168 3.30225C20.7361 3.28759 20.5548 3.32021 20.3906 3.39691L2.68229 11.7302C2.50165 11.8159 2.34943 11.9517 2.24373 12.1214C2.13803 12.2911 2.08329 12.4876 2.08604 12.6876C2.08878 12.8875 2.14888 13.0824 2.2592 13.2491C2.36952 13.4159 2.52541 13.5474 2.70833 13.6282ZM8.33333 23.0907L13.3083 20.6782L8.33333 18.3573V23.0907Z" fill="white"/>
</svg>
