<svg width="30" height="30" viewBox="0 0 30 30" fill="none" xmlns="http://www.w3.org/2000/svg">
<path d="M7.5 2.5L3.75 7.5V25C3.75 25.663 4.01339 26.2989 4.48223 26.7678C4.95107 27.2366 5.58696 27.5 6.25 27.5H23.75C24.413 27.5 25.0489 27.2366 25.5178 26.7678C25.9866 26.2989 26.25 25.663 26.25 25V7.5L22.5 2.5H7.5Z" fill="#04AADD"/>
<path d="M7.66667 2L4 3V6.5C4 6.63261 4.25754 6.75979 4.71596 6.85355C5.17438 6.94732 5.79614 7 6.44444 7H23.5556C24.2039 7 24.8256 6.94732 25.284 6.85355C25.7425 6.75979 26 6.63261 26 6.5V3L22.3333 2H7.66667Z" fill="#7CDBF9"/>
<path d="M3.75 7.5H26.25" stroke="white" stroke-width="2" stroke-linecap="round" stroke-linejoin="round"/>
<path d="M20 12.5C20 13.8261 19.4732 15.0979 18.5355 16.0355C17.5979 16.9732 16.3261 17.5 15 17.5C13.6739 17.5 12.4021 16.9732 11.4645 16.0355C10.5268 15.0979 10 13.8261 10 12.5" stroke="white" stroke-width="2" stroke-linecap="round" stroke-linejoin="round"/>
</svg>
