<svg width="30" height="30" viewBox="0 0 30 30" fill="none" xmlns="http://www.w3.org/2000/svg">
<path d="M15.2755 2.5H14.7255C14.0624 2.5 13.4266 2.76339 12.9577 3.23223C12.4889 3.70107 12.2255 4.33696 12.2255 5V5.225C12.225 5.66341 12.1093 6.09399 11.8899 6.47355C11.6705 6.85311 11.3552 7.1683 10.9755 7.3875L10.438 7.7C10.0579 7.91942 9.62683 8.03494 9.18799 8.03494C8.74915 8.03494 8.31804 7.91942 7.93799 7.7L7.75049 7.6C7.17682 7.26908 6.49529 7.1793 5.85549 7.35039C5.2157 7.52147 4.66993 7.93942 4.33799 8.5125L4.06299 8.9875C3.73207 9.56117 3.6423 10.2427 3.81338 10.8825C3.98446 11.5223 4.40241 12.0681 4.97549 12.4L5.16299 12.525C5.54084 12.7431 5.85501 13.0564 6.0743 13.4335C6.29359 13.8107 6.41036 14.2387 6.41299 14.675V15.3125C6.41474 15.753 6.30005 16.1862 6.08055 16.5681C5.86104 16.9501 5.5445 17.2672 5.16299 17.4875L4.97549 17.6C4.40241 17.9319 3.98446 18.4777 3.81338 19.1175C3.6423 19.7573 3.73207 20.4388 4.06299 21.0125L4.33799 21.4875C4.66993 22.0606 5.2157 22.4785 5.85549 22.6496C6.49529 22.8207 7.17682 22.7309 7.75049 22.4L7.93799 22.3C8.31804 22.0806 8.74915 21.9651 9.18799 21.9651C9.62683 21.9651 10.0579 22.0806 10.438 22.3L10.9755 22.6125C11.3552 22.8317 11.6705 23.1469 11.8899 23.5265C12.1093 23.906 12.225 24.3366 12.2255 24.775V25C12.2255 25.663 12.4889 26.2989 12.9577 26.7678C13.4266 27.2366 14.0624 27.5 14.7255 27.5H15.2755C15.9385 27.5 16.5744 27.2366 17.0433 26.7678C17.5121 26.2989 17.7755 25.663 17.7755 25V24.775C17.7759 24.3366 17.8917 23.906 18.1111 23.5265C18.3305 23.1469 18.6458 22.8317 19.0255 22.6125L19.563 22.3C19.943 22.0806 20.3741 21.9651 20.813 21.9651C21.2518 21.9651 21.6829 22.0806 22.063 22.3L22.2505 22.4C22.8242 22.7309 23.5057 22.8207 24.1455 22.6496C24.7853 22.4785 25.3311 22.0606 25.663 21.4875L25.938 21C26.2689 20.4263 26.3587 19.7448 26.1876 19.105C26.0165 18.4652 25.5986 17.9194 25.0255 17.5875L24.838 17.4875C24.4565 17.2672 24.1399 16.9501 23.9204 16.5681C23.7009 16.1862 23.5862 15.753 23.588 15.3125V14.6875C23.5862 14.247 23.7009 13.8138 23.9204 13.4319C24.1399 13.0499 24.4565 12.7328 24.838 12.5125L25.0255 12.4C25.5986 12.0681 26.0165 11.5223 26.1876 10.8825C26.3587 10.2427 26.2689 9.56117 25.938 8.9875L25.663 8.5125C25.3311 7.93942 24.7853 7.52147 24.1455 7.35039C23.5057 7.1793 22.8242 7.26908 22.2505 7.6L22.063 7.7C21.6829 7.91942 21.2518 8.03494 20.813 8.03494C20.3741 8.03494 19.943 7.91942 19.563 7.7L19.0255 7.3875C18.6458 7.1683 18.3305 6.85311 18.1111 6.47355C17.8917 6.09399 17.7759 5.66341 17.7755 5.225V5C17.7755 4.33696 17.5121 3.70107 17.0433 3.23223C16.5744 2.76339 15.9385 2.5 15.2755 2.5Z" fill="#FAAD13"/>
<path d="M15 18.75C17.0711 18.75 18.75 17.0711 18.75 15C18.75 12.9289 17.0711 11.25 15 11.25C12.9289 11.25 11.25 12.9289 11.25 15C11.25 17.0711 12.9289 18.75 15 18.75Z" fill="white"/>
</svg>
