<svg width="64" height="64" viewBox="0 0 64 64" fill="none" xmlns="http://www.w3.org/2000/svg">
<path d="M32 62C48.5685 62 62 48.5685 62 32C62 15.4315 48.5685 2 32 2C15.4315 2 2 15.4315 2 32C2 48.5685 15.4315 62 32 62Z" fill="#75A843"/>
<path d="M32 62C48.5685 62 62 48.5685 62 32C62 15.4315 48.5685 2 32 2C15.4315 2 2 15.4315 2 32C2 48.5685 15.4315 62 32 62Z" fill="#699635"/>
<path d="M26.0004 46.0999C33.7876 46.0999 40.1004 39.7871 40.1004 31.9999C40.1004 24.2127 33.7876 17.8999 26.0004 17.8999C18.2132 17.8999 11.9004 24.2127 11.9004 31.9999C11.9004 39.7871 18.2132 46.0999 26.0004 46.0999Z" fill="#ED4C5C"/>
</svg>
