<svg width="1291" height="638" viewBox="0 0 1291 638" fill="none" xmlns="http://www.w3.org/2000/svg">
<circle cx="112.739" cy="605.739" r="31.7389" fill="#816EF4"/>
<circle cx="1274.25" cy="327.849" r="16.4093" fill="#48E587"/>
<path d="M332.392 10.4846C333.39 9.21257 334.992 8.56995 336.593 8.79881L353.824 11.2622C355.425 11.491 356.782 12.5566 357.385 14.0575L363.867 30.212C364.469 31.7129 364.225 33.4211 363.226 34.6931L352.477 48.3843C351.479 49.6563 349.877 50.2989 348.276 50.0701L331.045 47.6067C329.444 47.3779 328.087 46.3123 327.484 44.8114L321.002 28.6569C320.4 27.156 320.644 25.4478 321.643 24.1757L332.392 10.4846Z" fill="#806DF5"/>
<path d="M0 289.04C24.1425 282.25 74.2381 288.587 81.4808 368.257C54.3205 370.521 0 357.846 0 289.04Z" fill="#FFA318"/>
<path d="M1128.33 79.4814C1126.49 62.9712 1136 30.9049 1188.86 34.7207C1187.43 52.7177 1173.31 86.8657 1128.33 79.4814Z" fill="#2FB8E3"/>
</svg>
